<svg width="1280" height="720" xmlns="http://www.w3.org/2000/svg" xmlns:xlink="http://www.w3.org/1999/xlink" overflow="hidden"><defs><clipPath id="clip0"><rect x="0" y="0" width="1280" height="720"/></clipPath></defs><g clip-path="url(#clip0)"><rect x="0" y="0" width="1280" height="720" fill="#FFFFFF"/><text fill="#898989" font-family="DengXian,DengXian_MSFontService,sans-serif" font-weight="400" font-size="13" transform="translate(1168.27 691)">16</text><path d="M270 88.5 358.5 75 447 88.5 358.5 102Z" stroke="#000000" stroke-width="2" stroke-miterlimit="8" fill="none" fill-rule="evenodd"/><text fill="#0D0D0D" font-family="DengXian,DengXian_MSFontService,sans-serif" font-weight="400" font-size="13" transform="translate(325.097 93)">序列平稳性</text><rect x="263" y="31" width="188" height="26" stroke="#0D0D0D" stroke-width="2" stroke-miterlimit="8" fill="none"/><text fill="#0D0D0D" font-family="DengXian,DengXian_MSFontService,sans-serif" font-weight="400" font-size="13" transform="translate(297.11 48)">处理后的收益率数据</text><path d="M359 57 359 68.6435 357 68.6435 357 57ZM362 67.3101 358 75.3101 354 67.3102Z" fill="#0D0D0D"/><rect x="263" y="120" width="188" height="27" stroke="#0D0D0D" stroke-width="2" stroke-miterlimit="8" fill="none"/><text fill="#0D0D0D" font-family="DengXian,DengXian_MSFontService,sans-serif" font-weight="400" font-size="13" transform="translate(323.777 138)">序列平稳化</text><path d="M359 102 359 113.643 357 113.643 357 102ZM362 112.31 358 120.31 354 112.31Z" fill="#0D0D0D"/><rect x="264" y="165" width="188" height="26" stroke="#0D0D0D" stroke-width="2" stroke-miterlimit="8" fill="none"/><text fill="#0D0D0D" font-family="DengXian,DengXian_MSFontService,sans-serif" font-weight="400" font-size="13" transform="translate(331.137 182)">平稳序列</text><path d="M359 147 359 158.643 357 158.643 357 147ZM362 157.31 358 165.31 354 157.31Z" fill="#0D0D0D"/><path d="M447 88 476.826 88 476.826 179.546 458.492 179.546 458.492 177.546 475.826 177.546 474.826 178.546 474.826 89 475.826 90 447 90ZM459.826 182.546 451.826 178.546 459.826 174.546Z"/><text font-family="DengXian,DengXian_MSFontService,sans-serif" font-weight="400" font-size="13" transform="translate(363.654 115)">不平稳<tspan font-size="13" x="84.2273" y="-31">平稳</tspan></text><path d="M359 236 359 247.318" stroke="#000000" stroke-width="2" stroke-miterlimit="8" fill="none" fill-rule="evenodd"/><path d="M265 248 452.752 248" stroke="#000000" stroke-width="2" stroke-miterlimit="8" fill="none" fill-rule="evenodd"/><path d="M1-1.20897e-05 1.00013 10.7013-0.999871 10.7013-1 1.20897e-05ZM4.00011 9.36793 0.000209974 17.368-3.99989 9.36803Z" fill="#0D0D0D" transform="matrix(-1 0 0 1 264 247)"/><path d="M454 247 454 258.643 452 258.643 452 247ZM457 257.31 453 265.31 449 257.31Z" fill="#0D0D0D"/><rect x="170" y="264" width="188" height="39" stroke="#0D0D0D" stroke-width="2" stroke-miterlimit="8" fill="none"/><text fill="#0D0D0D" font-family="DengXian,DengXian_MSFontService,sans-serif" font-weight="400" font-size="13" transform="translate(201.055 280)">直接回归<tspan font-size="13" x="53.3333" y="0">ARMA(p, q)</tspan><tspan font-size="13" x="119.167" y="0">-</tspan><tspan font-size="13" x="-16.0867" y="16">GARCH(m, s)</tspan><tspan font-size="13" x="57.58" y="16">，比较</tspan><tspan font-size="13" x="97.58" y="16">AIC/BIC</tspan></text><path d="M454 318 454 329.643 452 329.643 452 318ZM457 328.31 453 336.31 449 328.31Z" fill="#0D0D0D"/><path d="M454 363 454 374.643 452 374.643 452 363ZM457 373.31 453 381.31 449 373.31Z" fill="#0D0D0D"/><path d="M357 350 452.5 337 548 350 452.5 363Z" stroke="#000000" stroke-width="2" stroke-miterlimit="8" fill="none" fill-rule="evenodd"/><text fill="#0D0D0D" font-family="DengXian,DengXian_MSFontService,sans-serif" font-weight="400" font-size="13" transform="translate(409.221 354)">检验<tspan font-size="13" x="26.6667" y="0">ARCH</tspan><tspan font-size="13" x="60.3333" y="0">效应</tspan></text><rect x="449" y="264" width="90" height="27" stroke="#0D0D0D" stroke-width="2" stroke-miterlimit="8" fill="none"/><text fill="#0D0D0D" font-family="DengXian,DengXian_MSFontService,sans-serif" font-weight="400" font-size="13" transform="translate(458.541 282)">比较<tspan font-size="13" x="26.6667" y="0">AIC/BIC</tspan></text><rect x="449" y="291" width="90" height="27" stroke="#0D0D0D" stroke-width="2" stroke-miterlimit="8" fill="none"/><text fill="#0D0D0D" font-family="DengXian,DengXian_MSFontService,sans-serif" font-weight="400" font-size="13" transform="translate(465.791 308)">比较<tspan font-size="13" x="26.6667" y="0">EACF</tspan></text><rect x="366" y="264" width="83" height="54" stroke="#0D0D0D" stroke-width="2" stroke-miterlimit="8" fill="none"/><text fill="#0D0D0D" font-family="DengXian,DengXian_MSFontService,sans-serif" font-weight="400" font-size="13" transform="translate(375.956 295)">ARMA<tspan font-size="13" x="36.1667" y="0">定阶</tspan></text><rect x="411" y="380" width="178" height="28" stroke="#0D0D0D" stroke-width="2" stroke-miterlimit="8" fill="none"/><text fill="#0D0D0D" font-family="DengXian,DengXian_MSFontService,sans-serif" font-weight="400" font-size="13" transform="translate(419.11 398)">平方列：<tspan font-size="13" x="53.3333" y="0">ARMA(max(p, q),p)</tspan></text><rect x="411" y="408" width="178" height="27" stroke="#0D0D0D" stroke-width="2" stroke-miterlimit="8" fill="none"/><text fill="#0D0D0D" font-family="DengXian,DengXian_MSFontService,sans-serif" font-weight="400" font-size="13" transform="translate(436.777 425)">GARCH(p, q), 比较<tspan font-size="13" x="105.667" y="0">AIC</tspan></text><rect x="317" y="381" width="94" height="54" stroke="#0D0D0D" stroke-width="2" stroke-miterlimit="8" fill="none"/><text fill="#0D0D0D" font-family="DengXian,DengXian_MSFontService,sans-serif" font-weight="400" font-size="13" transform="translate(329.235 404)">残差<tspan font-size="13" x="26.6667" y="0">GARCH</tspan><tspan font-size="13" x="21.3333" y="16">定阶</tspan></text><path d="M454 435 454 446.643 452 446.643 452 435ZM457 445.31 453 453.31 449 445.31Z" fill="#0D0D0D"/><rect x="372" y="453" width="160" height="27" stroke="#0D0D0D" stroke-width="2" stroke-miterlimit="8" fill="none"/><text fill="#0D0D0D" font-family="DengXian,DengXian_MSFontService,sans-serif" font-weight="400" font-size="13" transform="translate(412.027 471)">联合<tspan font-size="13" x="26.6667" y="0">估计参数</tspan></text><path d="M0 0 1.04052 191.581" stroke="#000000" stroke-width="2" stroke-miterlimit="8" fill="none" fill-rule="evenodd" transform="matrix(-1 0 0 1 264.041 346)"/><path d="M263 537 453.527 537" stroke="#000000" stroke-width="2" stroke-miterlimit="8" fill="none" fill-rule="evenodd"/><path d="M454 481 454 492.643 452 492.643 452 481ZM457 491.31 453 499.31 449 491.31Z" fill="#0D0D0D"/><path d="M453 527 453 537.603" stroke="#000000" stroke-width="2" stroke-miterlimit="8" fill="none" fill-rule="evenodd"/><rect x="369" y="499" width="166" height="27" stroke="#0D0D0D" stroke-width="2" stroke-miterlimit="8" fill="none"/><text fill="#0D0D0D" font-family="DengXian,DengXian_MSFontService,sans-serif" font-weight="400" font-size="13" transform="translate(378.694 517)">去除不显著的参数并比较</text><path d="M358 579 358 590.643 356 590.643 356 579ZM361 589.31 357 597.31 353 589.31Z" fill="#0D0D0D"/><rect x="277" y="597" width="160" height="27" stroke="#0D0D0D" stroke-width="2" stroke-miterlimit="8" fill="none"/><text fill="#0D0D0D" font-family="DengXian,DengXian_MSFontService,sans-serif" font-weight="400" font-size="13" transform="translate(310.429 614)">模型诊断与预测</text><path d="M358 624 358 635.643 356 635.643 356 624ZM361 634.31 357 642.31 353 634.31Z" fill="#0D0D0D"/><rect x="277" y="642" width="160" height="26" stroke="#0D0D0D" stroke-width="2" stroke-miterlimit="8" fill="none"/><text fill="#0D0D0D" font-family="DengXian,DengXian_MSFontService,sans-serif" font-weight="400" font-size="13" transform="translate(310.429 659)">模型分析与总结</text><rect x="264" y="209" width="189" height="27" stroke="#0D0D0D" stroke-width="2" stroke-miterlimit="8" fill="none"/><text fill="#0D0D0D" font-family="DengXian,DengXian_MSFontService,sans-serif" font-weight="400" font-size="13" transform="translate(291.831 226)">基本统计量与假设检验</text><path d="M360 191 360 202.643 358 202.643 358 191ZM363 201.31 359 209.31 355 201.31Z" fill="#0D0D0D"/><text font-family="DengXian,DengXian_MSFontService,sans-serif" font-weight="400" font-size="13" transform="translate(459.214 376)">存在</text><path d="M0 1-66.9998 1-65.9998 0-65.9998 116.603-66.9998 115.603 9.65009 115.603 9.65009 117.603-67.9998 117.603-67.9998-1 0-1ZM8.31674 112.603 16.3167 116.603 8.31674 120.603Z" transform="matrix(-1 0 0 1 548.317 350)"/><text font-family="DengXian,DengXian_MSFontService,sans-serif" font-weight="400" font-size="13" transform="translate(549.787 345)">不存在</text><path d="M265 303 265 313.649 263 313.649 263 303ZM268 312.316 264 320.316 260 312.316Z" fill="#0D0D0D"/><rect x="169" y="321" width="189" height="25" stroke="#0D0D0D" stroke-width="2" stroke-miterlimit="8" fill="none"/><text fill="#0D0D0D" font-family="DengXian,DengXian_MSFontService,sans-serif" font-weight="400" font-size="13" transform="translate(190.595 338)">去除不显著的参数并比较</text><path d="M360 536 360 547.643 358 547.643 358 536ZM363 546.31 359 554.31 355 546.31Z" fill="#0D0D0D"/><rect x="278" y="554" width="160" height="26" stroke="#0D0D0D" stroke-width="2" stroke-miterlimit="8" fill="none"/><text fill="#0D0D0D" font-family="DengXian,DengXian_MSFontService,sans-serif" font-weight="400" font-size="13" transform="translate(288.862 571)">得到<tspan font-size="13" x="26.6667" y="0">ARMA</tspan><tspan font-size="13" x="62.8333" y="0">-</tspan><tspan font-size="13" x="69.5" y="0">GARCH</tspan><tspan font-size="13" x="112.167" y="0">模型</tspan></text></g></svg>